<?xml version="1.0" encoding="iso-8859-1"?>
<!-- Generator: Adobe Illustrator 19.0.0, SVG Export Plug-In . SVG Version: 6.00 Build 0)  -->
<svg version="1.1" id="Layer_1" xmlns="http://www.w3.org/2000/svg" xmlns:xlink="http://www.w3.org/1999/xlink" x="0px" y="0px"
	 viewBox="0 0 512 512" style="enable-background:new 0 0 512 512;" xml:space="preserve">
<g>
	<g>
		<path d="M392.264,225.877c0.249-1.112,0.522-2.264,0.522-3.451c0-8.691-6.915-15.738-15.607-15.738h-3.114l7.275-152.257
			c1.185-12.238-2.823-24.405-11.042-33.57c-8.338-9.297-20.282-14.567-32.768-14.567h-52.793C281.862,2.098,277.35,0,272.262,0
			h-32.525c-5.089,0-9.6,2.098-12.477,6.295h-51.743c-12.486,0-24.43,5.27-32.767,14.567c-8.23,9.176-12.237,21.396-11.037,33.649
			l8.121,152.177h-3.965c-8.691,0-15.738,7.046-15.738,15.738c0,1.187-0.121,2.339,0.129,3.451
			c-7.631,1.087-13.768,7.63-13.768,15.561v24.883c0,50.705,35.419,93.346,82.634,104.847l-8.45,112.936
			c-0.551,7.257,2.035,14.318,6.982,19.656c4.947,5.338,12.025,8.239,19.304,8.239h99.125c7.279,0,14.29-2.9,19.238-8.238
			s7.468-12.481,6.917-19.737l-8.844-112.896c47.215-11.501,82.11-54.102,82.11-104.807v-24.883
			C405.508,233.507,399.896,226.964,392.264,225.877z M166.182,41.876c2.409-2.687,5.725-4.105,9.335-4.105h162.014
			c3.609,0,6.926,1.419,9.335,4.105c2.41,2.688,3.521,6.114,3.13,9.702c-0.035,0.318-0.061,0.621-0.074,0.941l-7.366,154.17H171.353
			l-8.23-154.273c-0.016-0.29-0.039-0.58-0.07-0.869C162.661,47.959,163.773,44.564,166.182,41.876z M212.62,480.525l8.102-105.967
			h71.604l8.102,105.967H212.62z M374.032,266.322c0,42.145-33.764,76.76-75.909,76.76h-83.199
			c-42.146,0-76.958-34.615-76.958-76.76v-9.273h19.48h199.203h17.384V266.322z"/>
	</g>
</g>
<g>
</g>
<g>
</g>
<g>
</g>
<g>
</g>
<g>
</g>
<g>
</g>
<g>
</g>
<g>
</g>
<g>
</g>
<g>
</g>
<g>
</g>
<g>
</g>
<g>
</g>
<g>
</g>
<g>
</g>
</svg>
